<svg width="243" height="137" viewBox="0 0 243 137" fill="none" xmlns="http://www.w3.org/2000/svg">
<g clip-path="url(#clip0_391_18)">
<path d="M231.835 8.69433C232.885 5.81283 231.327 2.59086 228.378 1.71894C227.353 1.41169 226.295 1.14596 225.228 0.921748C222.412 0.315553 219.462 0 216.421 0C200.457 0 186.96 8.76906 182.527 20.8265L182.177 21.7815C170.113 54.8149 167.446 86.1461 173.787 103.56C178.328 115.933 191.734 124.909 207.564 124.909C227.128 124.909 242.992 111.208 242.992 94.3089C242.992 88.5626 239.326 83.5552 233.893 80.9394C232.585 80.3083 231.169 79.8184 229.677 79.4862C228.269 79.179 226.794 79.0129 225.278 79.0129C217.296 79.0129 210.547 83.5718 208.331 89.8414C207.831 91.2531 207.564 92.7561 207.564 94.3089C207.564 102.762 215.496 109.613 225.278 109.613C229.619 109.613 233.593 108.26 236.676 106.026C237.034 105.769 237.484 106.209 237.234 106.566C233.91 111.374 228.436 113.35 222.145 113.591C209.214 114.073 198 103.56 202.449 89.1604L231.835 8.69433Z" fill="black"/>
<path d="M175.02 45.1324C166.855 67.4869 155.973 86.4533 144.983 99.0173C141.817 102.638 138.443 104.432 135.76 103.46C130.861 101.683 130.136 91.3278 134.152 80.3332L160.206 8.99327C161.347 5.87095 159.556 2.4746 156.348 1.56946C155.482 1.32034 154.598 1.10444 153.707 0.913444C150.899 0.315553 147.95 0 144.908 0C128.945 0 115.447 8.76906 111.014 20.8265L110.664 21.7815C93.9339 67.5949 95.2753 110.136 113.664 116.805C132.052 123.473 160.514 91.743 177.245 45.9296" fill="black"/>
<path d="M102.816 61.425C97.5666 97.4728 70.9045 124.909 38.8017 124.909C17.372 124.909 0 111.739 0 95.4882C0 79.2372 17.372 66.067 38.8017 66.067C71.4128 66.067 97.8499 92.4157 97.8499 124.918C97.8499 126.919 98.2248 133.529 96.3668 135.763C94.2838 138.262 90.3512 136.726 90.6928 133.703C91.0844 130.274 95.8752 129.825 95.7086 124.918C95.7086 102.953 83.0191 83.8708 64.5306 74.5288C61.0312 72.7351 57.0319 71.722 52.7743 71.722C39.0766 71.722 27.9785 82.2598 27.9785 95.264C27.9785 108.268 39.085 118.806 52.7743 118.806C57.2985 118.806 61.5394 117.66 65.1888 115.65C83.419 105.569 96.9001 85.3739 100.458 61.1925L102.816 61.4333V61.425Z" fill="black"/>
</g>
<defs>
<clipPath id="clip0_391_18">
<rect width="243" height="137" fill="white"/>
</clipPath>
</defs>
</svg>
